<?xml version="1.0" standalone="no"?>
<!DOCTYPE svg PUBLIC "-//W3C//DTD SVG 20010904//EN"
 "http://www.w3.org/TR/2001/REC-SVG-20010904/DTD/svg10.dtd">
<svg version="1.0" xmlns="http://www.w3.org/2000/svg"
 width="2000.000000pt" height="2000.000000pt" viewBox="0 0 2000.000000 2000.000000"
 preserveAspectRatio="xMidYMid meet">
<metadata>
Created by potrace 1.14, written by Peter Selinger 2001-2017
</metadata>
<g transform="translate(0.000000,2000.000000) scale(0.100000,-0.100000)"
fill="#000000" stroke="none">
<path d="M2239 19996 c-2 -2 -38 -7 -79 -11 -100 -9 -108 -10 -160 -19 -280
-49 -547 -144 -778 -277 -47 -27 -86 -49 -88 -49 -6 0 -175 -120 -224 -159
-363 -288 -653 -699 -795 -1126 -39 -118 -77 -273 -91 -370 -3 -22 -10 -60
-15 -85 -9 -51 -7 -15794 2 -15825 4 -11 10 -40 14 -65 7 -47 10 -58 45 -199
57 -224 151 -443 278 -651 26 -41 49 -77 53 -80 3 -3 11 -15 18 -27 25 -49
180 -233 275 -329 56 -56 141 -134 190 -174 89 -71 258 -190 272 -190 4 0 15
-6 23 -14 27 -23 203 -111 309 -155 140 -57 313 -110 429 -131 62 -11 86 -15
132 -25 14 -2 61 -8 105 -12 108 -11 15624 -10 15701 0 70 9 110 15 145 22 14
3 40 7 57 10 174 28 496 140 643 222 25 14 70 39 100 56 88 47 239 153 345
241 155 128 365 365 476 536 43 67 149 254 149 263 0 4 15 38 34 77 19 38 32
70 29 70 -3 0 -1 6 5 12 18 24 94 272 117 388 13 63 27 131 32 150 4 19 8
3579 10 7910 1 6549 -1 7888 -12 7955 -64 384 -175 675 -370 970 -282 427
-701 766 -1158 937 -113 42 -289 93 -367 107 -36 6 -76 13 -90 16 -14 3 -43 7
-65 10 -22 3 -56 9 -75 13 -35 7 -15613 15 -15621 8z"/>
</g>
</svg>
